<?xml version="1.0" encoding="utf-8"?>
<!-- Svg Vector Icons : http://www.onlinewebfonts.com/icon -->
<!DOCTYPE svg PUBLIC "-//W3C//DTD SVG 1.1//EN" "http://www.w3.org/Graphics/SVG/1.1/DTD/svg11.dtd">
<svg version="1.1" xmlns="http://www.w3.org/2000/svg" xmlns:xlink="http://www.w3.org/1999/xlink" x="0px" y="0px" viewBox="0 0 1000 1000" enable-background="new 0 0 1000 1000" xml:space="preserve">
<metadata> Svg Vector Icons : http://www.onlinewebfonts.com/icon </metadata>
<g><path d="M134.7,378.8L69.8,556.5l363.5,187.7l64.9-187.7L134.7,378.8z"/><path d="M568,742.5l-61.7-186l365.2-177.7l73,176L568,742.5z"/><path d="M135,378.3L10,228.8L380,34.5l118.5,154.4L135,378.3z"/><path d="M504.7,188.9L628.1,34.5L990,232.1L871.5,378.3L504.7,188.9z"/><path d="M113.2,603.5l327.4,169.4l54.8-146.1v338.8L112,783.6L113.2,603.5z"/><path d="M891,604.7L559.6,773.2l-50.8-146.5v338.8L891,783.6V604.7z"/></g>
</svg>