<?xml version="1.0" standalone="no"?>
<!DOCTYPE svg PUBLIC "-//W3C//DTD SVG 20010904//EN"
 "http://www.w3.org/TR/2001/REC-SVG-20010904/DTD/svg10.dtd">
<svg version="1.0" xmlns="http://www.w3.org/2000/svg"
 width="1276.000000pt" height="1280.000000pt" viewBox="0 0 1276.000000 1280.000000"
 preserveAspectRatio="xMidYMid meet">
<metadata>
Created by potrace 1.15, written by Peter Selinger 2001-2017
</metadata>
<g transform="translate(0.000000,1280.000000) scale(0.100000,-0.100000)"
fill="#000000" stroke="none">
<path d="M6752 12785 c-35 -8 -98 -31 -140 -51 -76 -37 -106 -66 -3284 -3242
-2527 -2526 -3214 -3218 -3242 -3266 -105 -177 -112 -390 -19 -579 32 -63 64
-100 270 -307 128 -130 233 -240 233 -246 0 -5 -99 -108 -221 -229 -121 -121
-233 -238 -248 -260 -48 -68 -73 -151 -74 -240 -1 -100 20 -173 72 -251 24
-36 368 -386 873 -890 822 -820 834 -831 908 -864 128 -58 286 -53 397 13 33
19 1347 945 3591 2531 359 253 691 488 738 521 l85 59 369 -369 370 -370 -55
-55 c-101 -102 -132 -223 -91 -350 18 -53 85 -122 2130 -2168 1784 -1786 2120
-2117 2166 -2140 46 -23 68 -27 135 -27 137 0 133 -3 596 462 455 457 444 442
444 583 0 61 -5 85 -27 130 -23 46 -354 381 -2135 2161 -2032 2031 -2110 2108
-2166 2128 -70 25 -174 28 -240 5 -26 -9 -62 -32 -84 -55 -21 -21 -42 -39 -48
-39 -5 0 -248 238 -540 528 -621 619 -578 587 -775 587 -103 0 -121 -3 -171
-26 -30 -15 -469 -319 -975 -676 -2869 -2027 -3474 -2453 -3481 -2453 -4 0
-236 228 -515 507 l-508 508 57 57 57 58 241 -238 c217 -215 247 -242 316
-275 181 -89 366 -85 554 11 66 33 266 231 3281 3246 3165 3164 3212 3212
3248 3286 53 111 69 187 64 300 -6 108 -36 208 -89 293 -33 54 -1400 1434
-1536 1551 -72 63 -147 106 -231 132 -69 22 -224 27 -300 9z"/>
</g>
</svg>
